/* XPM */
static char *_4d970656f1a49f6e2db49cc6da71617rsTtkeOOTxU3r2tB[] = {
/* columns rows colors chars-per-pixel */
"64 64 242 2 ",
"   c None",
".  c #010201",
"X  c #070906",
"o  c #161406",
"O  c #1A1C13",
"+  c #241A03",
"@  c #1F231E",
"#  c #352D13",
"$  c #2F2915",
"%  c #1D2A33",
"&  c #30322D",
"*  c #584515",
"=  c #75581A",
"-  c #544B2F",
";  c #7E5829",
":  c #7B5632",
">  c #7B5834",
",  c #78693E",
"<  c #7D6227",
"1  c #37485B",
"2  c #505453",
"3  c #585D63",
"4  c #5C6163",
"5  c #7D7E7B",
"6  c #716F66",
"7  c #894B06",
"8  c #974E00",
"9  c #9A5607",
"0  c #975A14",
"q  c #835819",
"w  c #A85803",
"e  c #B55A00",
"r  c #99601E",
"t  c #BB6907",
"y  c #A96718",
"u  c #B36B13",
"i  c #B66E17",
"p  c #BB721C",
"a  c #BA7219",
"s  c #8A5A26",
"d  c #815729",
"f  c #855A2B",
"g  c #8C5D2A",
"h  c #855827",
"j  c #915E23",
"k  c #915F29",
"l  c #835B35",
"z  c #885F36",
"x  c #94622C",
"c  c #9A652A",
"v  c #9E692E",
"b  c #9B6425",
"n  c #8C6136",
"m  c #8D633A",
"M  c #8E6C32",
"N  c #946535",
"B  c #9C6932",
"V  c #986837",
"C  c #96773B",
"Z  c #9C7622",
"A  c #A46925",
"S  c #AC6C25",
"D  c #A46C2D",
"F  c #AA6E2A",
"G  c #A16622",
"H  c #B06F23",
"J  c #AE7029",
"K  c #AA7429",
"L  c #B47225",
"P  c #BB7522",
"I  c #B3732A",
"U  c #BC7829",
"Y  c #A26C30",
"T  c #A77934",
"R  c #B67934",
"E  c #C75E00",
"W  c #C36300",
"Q  c #C96801",
"!  c #D46900",
"~  c #DC6A00",
"^  c #C97308",
"/  c #D47601",
"(  c #D57902",
")  c #DD7D00",
"_  c #D47A0D",
"`  c #DB7E0C",
"'  c #D97503",
"]  c #C47514",
"[  c #C97712",
"{  c #CD7A14",
"}  c #C2771C",
"|  c #C5791D",
" . c #CA7B1B",
".. c #D37E15",
"X. c #D37E16",
"o. c #E36B00",
"O. c #E27D01",
"+. c #E87800",
"@. c #F47400",
"#. c #FC7600",
"$. c #FD7B00",
"%. c #F27B00",
"&. c #C27922",
"*. c #C27B27",
"=. c #C07F32",
"-. c #8A6940",
";. c #916942",
":. c #99744A",
">. c #9E7A56",
",. c #A67D47",
"<. c #B17C40",
"1. c #9C803F",
"2. c #BA8536",
"3. c #B1832D",
"4. c #DD820D",
"5. c #D68015",
"6. c #DC8213",
"7. c #D3821B",
"8. c #DA8618",
"9. c #E48102",
"0. c #EC8502",
"q. c #E3840C",
"w. c #EC890B",
"e. c #EA8808",
"r. c #F28501",
"t. c #FE8400",
"y. c #F48B03",
"u. c #FD8E01",
"i. c #F38E0B",
"p. c #FF9100",
"a. c #FE9A01",
"s. c #FD940A",
"d. c #F99909",
"f. c #E78913",
"g. c #E7961C",
"h. c #FE9B14",
"j. c #F49815",
"k. c #F38C19",
"l. c #FDA61A",
"z. c #FFB21A",
"x. c #FFA20A",
"c. c #C78228",
"v. c #D68726",
"b. c #D9942D",
"n. c #C88838",
"m. c #D99637",
"M. c #CE9038",
"N. c #EA9626",
"B. c #F49826",
"V. c #E59935",
"C. c #EA9028",
"Z. c #E9A32A",
"A. c #FEA323",
"S. c #FDA22B",
"D. c #FCAA28",
"F. c #FFBA27",
"G. c #ECA436",
"H. c #F9A739",
"J. c #FFB839",
"K. c #DBA138",
"L. c #FFC735",
"P. c #9B865A",
"I. c #A38445",
"U. c #B58747",
"Y. c #AF8959",
"T. c #91886F",
"R. c #AA8967",
"E. c #AF946E",
"W. c #BFA266",
"Q. c #C38B48",
"!. c #D89948",
"~. c #C89759",
"^. c #D69C57",
"/. c #CA934F",
"(. c #E39E44",
"). c #D8A34A",
"_. c #DAA756",
"`. c #CAA15D",
"'. c #EBA54D",
"]. c #E5A448",
"[. c #FEAD44",
"{. c #F5AA49",
"}. c #F4A747",
"|. c #FAB349",
" X c #E7A654",
".X c #FBB458",
"XX c #E9B054",
"oX c #CB9C64",
"OX c #CCAA74",
"+X c #D6B478",
"@X c #D2A668",
"#X c #E6B776",
"$X c #E8B36B",
"%X c #FFC84D",
"&X c #F7DB6E",
"*X c #979897",
"=X c #928F8C",
"-X c #AAA598",
";X c #9DA1A3",
":X c #B3B2AF",
">X c #959691",
",X c #CAAB86",
"<X c #CCB88C",
"1X c #DBB987",
"2X c #CCB896",
"3X c #C4AF93",
"4X c #E7BD8B",
"5X c #D2BFA5",
"6X c #DAC396",
"7X c #D4C297",
"8X c #EBC48A",
"9X c #E5C99A",
"0X c #F2C994",
"qX c #DACAA9",
"wX c #C6C3BB",
"eX c #DACAB1",
"rX c #EDD2A6",
"tX c #EAD4B9",
"yX c #F6DBAC",
"uX c #B8BEC7",
"iX c #D6D7D6",
"pX c #D0CFC8",
"aX c #EADDC9",
"sX c #E9DFCB",
"dX c #DEE1DB",
"fX c #E7E3D9",
"gX c #F1E9D7",
"hX c #F0E7D1",
"jX c #D5DCE6",
"kX c #DEE9F9",
"lX c #D4E4F1",
"zX c #E8E8E6",
"xX c #F2EDE8",
"cX c #F4F2E9",
"vX c #E6EEF7",
"bX c #EEFCFF",
"nX c #EAF4F9",
"mX c #F3F6FB",
"MX c #F2FFFF",
"NX c #F4FEFF",
"BX c #FFFFFF",
"VX c #F4F5F3",
/* pixels */
"                                                                                                                                ",
"                                                                                                                                ",
"                                                                                                                                ",
"                                                                                                                                ",
"                                                                                                            E.>.                ",
"                                                                                                          E.>.:.;.;.            ",
"                                                                                                      E.R.>.;.m ;.;.;.;.        ",
"                                                                                                  <.Y.,.Y m z z m m ;.;.;.      ",
"                                                                                                    G D v B N m z m m m m z z   ",
"                                        .X.X{.[.[.[.[.A.H.NXcXH.H.[.[.H.{.gXNX8Xh.H.[.[.l.u.        b A D B B N m m z m m z >   ",
"                                      {.[.[.B.S.S.S.h.i.VXbXB.h.S.D.S.S.h.s.0XbXrXu.h.A.s.y.9.        S S D Y B B N m m m l :   ",
"                                    {.{.H.j.s.s.s.p.$.aXbXB.t.s.s.s.s.s.d.p.$..XNXaXr.t.p.r.O.        y S F F D B N N m m l >   ",
"                                    {.}.B.i.y.y.u.#.8XNX'.#.u.u.p.p.u.p.u.u.u.#.}.MXcXk.$.u.0.)         S L L F D Y N V m l :   ",
"                                  {.{.G.j.y.y.u.#. XBX#X$.a.a.u.u.u.p.p.p.p.p.p.#.B.VXNX}.$.r.9.          i P L F D Y B N z :   ",
"                                  '.G.B.i.y.y.$.C.MXrXt.XX7X_.d.a.p.u.p.p.p.p.p.p.t.r.tXbX8X#.%.4.        a p P L L F D B g f   ",
"                                '.{.V.f.e.w.r.+.MXgXe.6XnXNXkX2XV.a.p.u.u.u.u.u.u.p.t.#.4XNXtX%.+.)         p | &.L I F Y N f   ",
"                                '.].N.e.w.r.o.aXBX).pXNXBXBXBXNXiX+XZ.x.a.p.u.u.u.p.p.u.$. XNXgX+.o.        ] }  .&.P J D j g   ",
"                               X'.V.f.q.0.o.9XBXG.).BXBXBXBXBXBXBXBXVX6XXXj.a.a.p.u.u.p.u.$.B.NXmXv.~         ]  .| P y b j     ",
"                             X X(.C.` e.o.$XBX$X@.$XbXBXBXBXBXBXxXT.pXnXkXaX8X6X_.d.a.u.u.p.$.k.gXBX^.        [ [ ] i y         ",
"                            ^.].C.8.q.~ !.BX9Xo.y.#XBXBXBXBXBXBXNXo Z &XqXMXNXNXkX7XK.z.h.u.p.t.%.rXBX4X        ^ i             ",
"                          ^. X(.v.6.'  .BXfX~ %.u.`.bXBXBXBXBXBXvX@ 2.L.eXmXBXBXBXNXjXY.j.d.p.p.t.@.#XBX5X                      ",
"                          ^.!.m.8.' ! VXNX' +.q.l.K % uXBXBXBX:X& X M.%XvXBXBXBXBXBXBX1 q F.p.p.p.u.@. XbX                      ",
"                        ^. X!. ._ Q aXBXv.+.q.q.w.G.< . *XBX6 . o 1.D.XXvXBXBXBXBXBXBX2 = F.u.p.p.p.p.@.V.3X                    ",
"                      ^.^.!.v.X.E 4XBX!.! 8.q.q.q.w.L.c.-XmXo * XXF.a.].MXBXBXBXBXBXBX2 = F.u.u.p.p.p.p.%.)                     ",
"                      ^.^.M.*.E ~.BX1XE 6.6.4.q.q.q.O.l.yXvX-XrXJ.p.a.m.lXBXBXBXBXBXBX& < J.u.u.p.p.p.p.y.+.O.                  ",
"                    ^.~./.n.W *.BXaXE ` 5.6.6.6.q.q.w.g.qXBXBXbXwX).F.{.o -XBXBXBXwX- . C F.u.p.p.p.u.p.p.y.9.                  ",
"                    oX~.=.W i mXcXQ / X.5.5.6.6.4.q.g.qXmXBXBXBXBXkXP.3.P.uXkX:X6 X X , G.d.p.p.u.p.p.p.p.u.0.)                 ",
"                  oX~.Q.] e xXBXp Q &. .X.X.X.6.` 4.b.zXBXBXBXBXBXBX=X5 BXVXE.X X - ).L.x.u.p.p.p.p.p.p.p.p.y.O.)               ",
"                  oX~.=.w eXmXQ.t  . . ...X.X.X.6.4.b.iXBXBXBXBXBXBXBXBXeXG.F.M.3.|.z.u.u.u.p.p.u.p.p.u.p.p.u.0.)               ",
"                Y.~.Q.w ,XBXOXe | |  . . . .X.X._ ` b.xXBXBXBXBXBXBXzXT.Z.a.y.x.z.s.u.p.p.p.p.u.p.p.p.p.p.u.p.y.O.)             ",
"                R R w Y.BX5Xe } &.} | |  . .X.X.X.4.b.5XVXBXBXBXBXBX4 + J.y.y.y.u.y.u.p.u.p.p.p.p.p.p.p.p.p.p.y.) /             ",
"                G 8 T BXaX8 u P P &.} |  . . .X...6.b.- jXBXBXBXuXxXuX* S.y.y.y.y.u.y.u.u.u.p.p.u.p.p.u.p.p.u.9.( /             ",
"                  7 VXVX9 u I P P P P | |  . .{ 7._ g.<XBX4 T.*X. 3 BX6Xj.0.y.y.y.u.i.y.p.p.p.p.p.p.p.u.p.p.y.) /               ",
"                  pXBXY w I J P P P P | | |  . .] [ b.cXBX:.o . # I.VXMXb.p.0.0.y.y.u.i.p.y.u.p.p.p.p.p.p.y.9./ /               ",
"                    E.7 T F J L P P P P p &.} ] [ 4.+XbXqXJ.!.M ).J.+XbXqXj.y.u.y.e.y.y.y.i.p.p.p.p.p.p.p.0.) /                 ",
"                    7 c D J J L L L P P &.p } 7.M.<XzXzX).4.q.A.i.O.g.aXbX<XqX_.i.s.y.y.u.u.y.p.u.p.p.u.y.O.(                   ",
"                      k b D F J K L P P L &.n.OXiXMXBXzXW.V.N._ ` ` g.+XbXMXNXkX<Xb.z.u.y.y.u.u.u.p.p.y.0.( /                   ",
"                      k x D S J J L I L p c.2XbXBXBXBXBXvX>X2.g._ q._.fXBXBXBXBXnXpXU.A.i.y.y.i.s.y.p.y.4.(                     ",
"                        g b D S F L S L H 2.dXBXBXBXBXBXBX>X# ].` 4.+XNXBXBXBXBXBXbX% 3.l.r.y.u.y.p.y.9.( (                     ",
"                          g c D F F J H i 2.aXBXBXBXBXBXBX>X# ].4.4.+XMXBXBXBXBXBXcX& T D.y.y.y.y.u.0./ /                       ",
"                          x x D F F F S L 2.fXBXBXBXBXBXBX;X# '.X.4.+XBXBXBXBXBXBXBX& T D.r.y.w.y.0.) / '                       ",
"                H.s.        g c D D F S H 2.wXBXBXBXBXBXBX5 # ).X.8.oXMXBXBXBXBXBXzX@ 1.D.0.y.y.y.4._ /       >.                ",
"              .XS.y.        g k v D F F I /.- 3 zXBXBXiX6 X - ]...V.C % :XBXBXBX-X& X U.A.e.w.w.e./ / /     R.:.m m             ",
"          .X.X|.h.r.)         g x v D F F 2.U.# O =X>Xo . - Y.b.] 7.K.M o 2 -X2 . O I.H.w.e.w.w.( Q ~     R.>.;.m l             ",
"      (. X.X'.S.p.0.9.        g g c D D D A n.$X:.O . & >.XXV.} | [ 7.[._.- . X , _.J.f.q.e.%.! Q /.      Y.:.z z >             ",
"      m.(.V.N.k.u.y.9.)         f x v D D F A L !.~.M `.'.&.i } }  .[ [ N.|.I.I.|.j.` O.o.~ 8.1XNXlX    !.<.F B m >             ",
"      *.v.v.q.w.w.y.0.O.          g N D D F D S A =.!.=.H P P P &.| | | { X.B.B.4.! ! 8. XsXMXNXtX      !.*.L D B d             ",
"      &.*.v.6.q.e.y.y.0.)         f g c Y D D D F S i H L L P &.P | |  . .{ ^ W ^ ^.tXNXMXfX@Xi w     g.6.X.} S c g             ",
"      U =.*.7.6.q.w.w.0.9.          g N v D D D F F J I I L P P P &.&.] W t c.1XmXNXnX8XM.W e t       O.( ..] i r               ",
"      R R c. .X.8.q.w.r.9.O.        f g x B D D D F F F S L I L p e e i oXsXBXMXtX/.^ ! ! ^ t             _ ^                   ",
"      Y J U P  .X.X.f.w.0.4.)         f g x x x c c c G c A 9 8 9 U.qXBXBXzX,XP e t ^ a a t u                                   ",
"      B v A L P  .X.` f.e.9.)         f f d f f s s s k 0 0 ,.2XxXBXvX3XT 9 8 w y y u u u u                                     ",
"      f f k b S P | 5.6.q.4.( (         ; ; d d d h s q : =XpXkXiXY.7 7 8 0 y y y y y y u u                                     ",
"        ; d s b A p  .{ [ ^ ^ ^                                                                                                 ",
"            d s b r y a u i t                                                                                                   ",
"                s j r y y u                                                                                                     ",
"                    j r                                                                                                         ",
"                                                                                                                                ",
"                                                                                                                                ",
"                                                                                                                                ",
"                                                                                                                                ",
"                                                                                                                                ",
"                                                                                                                                ",
"                                                                                                                                "
};
