/* XPM */
static char *f810ab96f03e4c6db7141153ea48de1d20fGlCrzJBcvSJXD[] = {
/* columns rows colors chars-per-pixel */
"32 32 195 2 ",
"   c None",
".  c #5B2E00",
"X  c #613E00",
"o  c #5B4416",
"O  c #744700",
"+  c #564523",
"@  c #5B543D",
"#  c #7F562C",
"$  c #675438",
"%  c #7F5933",
"&  c #7A5634",
"*  c #405461",
"=  c #5A6674",
"-  c #814D15",
";  c #845E1F",
":  c #985D1B",
">  c #A85A02",
",  c #B55D00",
"<  c #AD630E",
"1  c #A36709",
"2  c #B76609",
"3  c #A56819",
"4  c #B16D1D",
"5  c #BB731D",
"6  c #B97617",
"7  c #A9761C",
"8  c #8D5D2A",
"9  c #895B2A",
"0  c #915F26",
"q  c #8A5E32",
"w  c #855D36",
"e  c #92612B",
"r  c #9A662C",
"t  c #976629",
"y  c #8C633C",
"u  c #8E6030",
"i  c #956636",
"p  c #94683C",
"a  c #A56926",
"s  c #AD6C23",
"d  c #A36B2D",
"f  c #AA6E2C",
"g  c #B06D21",
"h  c #B47124",
"j  c #BB7524",
"k  c #B17229",
"l  c #BA7929",
"z  c #A16C31",
"x  c #BA7C33",
"c  c #B57935",
"v  c #A97836",
"b  c #C36400",
"n  c #CB6B00",
"m  c #D76C00",
"M  c #CE7300",
"N  c #C4720E",
"B  c #CE770F",
"V  c #D27500",
"C  c #D67904",
"Z  c #DB7A02",
"A  c #D47B0A",
"S  c #D67808",
"D  c #C47619",
"F  c #C5791D",
"G  c #CB7C1B",
"H  c #C77816",
"J  c #D27E16",
"K  c #D17F19",
"L  c #E36C00",
"P  c #EE6D00",
"I  c #E37702",
"U  c #E37E00",
"Y  c #ED7F00",
"T  c #F37300",
"R  c #FD7600",
"E  c #F27F00",
"W  c #FE7D00",
"Q  c #CB7D22",
"!  c #936B44",
"~  c #9D7A40",
"^  c #9F7B59",
"/  c #A07D5D",
"(  c #907A6C",
")  c #7E827D",
"_  c #B5863E",
"`  c #DC8208",
"'  c #D58219",
"]  c #DD8619",
"[  c #E68100",
"{  c #EC8602",
"}  c #E9880E",
"|  c #F28300",
" . c #FD8300",
".. c #F48B02",
"X. c #FD8C01",
"o. c #F58F08",
"O. c #FF9100",
"+. c #FB960B",
"@. c #E78818",
"#. c #FF8E14",
"$. c #EB941A",
"%. c #FE9C1E",
"&. c #FFA303",
"*. c #FFA41D",
"=. c #FFA110",
"-. c #CD832A",
";. c #C78627",
":. c #D78624",
">. c #C88430",
",. c #D18E30",
"<. c #DB9237",
"1. c #ED9523",
"2. c #E89A38",
"3. c #F69D39",
"4. c #FFA829",
"5. c #FEA934",
"6. c #F8A73A",
"7. c #B38840",
"8. c #BC9456",
"9. c #B28A55",
"0. c #B38F6A",
"q. c #A7946D",
"w. c #A19479",
"e. c #C28C46",
"r. c #C99252",
"t. c #D59A53",
"y. c #D19C5D",
"u. c #E99E43",
"i. c #DBA35D",
"p. c #EFAC44",
"a. c #F7AA45",
"s. c #E7A755",
"d. c #F7AE5B",
"f. c #F7B357",
"g. c #C49967",
"h. c #CFA260",
"j. c #D5A265",
"k. c #C9A67A",
"l. c #E7B36E",
"z. c #F8B968",
"x. c #E9B674",
"c. c #FAC376",
"v. c #818C9A",
"b. c #91948D",
"n. c #BFA588",
"m. c #8393A2",
"M. c #96A2AC",
"N. c #96A0A2",
"B. c #8EA4B8",
"V. c #CCB080",
"C. c #DCB585",
"Z. c #CFBD9B",
"A. c #D6BF95",
"S. c #E8BC86",
"D. c #D4BDA2",
"F. c #EEC482",
"G. c #E7C39B",
"H. c #EACD9C",
"J. c #E8C094",
"K. c #FDD098",
"L. c #FCC586",
"P. c #FFE59F",
"I. c #D6CDBC",
"U. c #F1CFA0",
"Y. c #F6D0A3",
"T. c #F9DDAF",
"R. c #E7D0B3",
"E. c #ECDAB5",
"W. c #E8D1B3",
"Q. c #E4C7A6",
"!. c #FDE6BE",
"~. c #AFC0CF",
"^. c #BBC8D8",
"/. c #D6D6D3",
"(. c #E5D9C7",
"). c #EADFD2",
"_. c #EEE5C8",
"`. c #F3E2C4",
"'. c #E6E4DC",
"]. c #ECE5DB",
"[. c #E9E3D3",
"{. c #F2E9D5",
"}. c #F0E4D1",
"|. c #FFF6D6",
" X c #CCD6E1",
".X c #C2D4E7",
"XX c #C0D6F4",
"oX c #D2E0F0",
"OX c #EEEEE4",
"+X c #E9E8EA",
"@X c #E3EDF3",
"#X c #E0F4FF",
"$X c #F3FDFF",
"%X c #FEFFFF",
"&X c #F0F7F9",
/* pixels */
"                                                                ",
"                                                                ",
"                                                                ",
"                                                    /           ",
"                                                0.^ y y !       ",
"                    f.a.5.4./.l.4.C./.5.5.*.    r r q y y y     ",
"                  a.6.%.X.Y.K.+.%.+.L.{.5.W U     f z i y %     ",
"                  p.o.R d.U.E W X.X.W d.}.a.P     g k d i w     ",
"                s.1.T 3.[.c.H.p.X. . .W 3.}.x.L     j j f u     ",
"                p.I @.E.H.%X%X$XE.f.+.X.R #.`.G.    H F g e     ",
"              s.J I ).u.x.%X%X%Xb._.OXE.a.X. .Y.R.    N         ",
"            j.<.m R.S.R 7.~.+X= O P.%X%X.X6 O.W c.              ",
"            t.n S.R.m o.m 8.M.X { T.%X%XXX9 &.O. .]             ",
"          j.N y.).M Z S { c.&X|.6.9.#X^.* 7 &.O.O. .U           ",
"          Q 7.].Q n ' S ` ].%X%X@XI.k.+ 1 =.O.O.O.O.{           ",
"        c c +Xr., Q K J S E.%X%XoX_ O.+.&.X.O.O.O.O...Z         ",
"        : /.k.> Q F G B n Z..Xv.B.;.X.X.X.X.O.O.O.O.{ M         ",
"          V.> h h j D b ,._.v . A.!.[ E X.o.X.O.O...C           ",
"          - a h k 5 5 h.+X[.$.X.$.'.}.x.o.X.X.O.O.[             ",
"            8 f k < e.$X%X%Xq.2 u.%X%X$Xq.U X.X...C             ",
"              r f < 8.%X%X%Xv.> i.%X%X%X) M X.o.Z               ",
"      z.4.    % d 4 v N. XM.@ ' _ N. Xm.$ $.| I n   ( w         ",
"    s.a.X.|     e f h 0 @ + k :.A 3 @ o V Y 1.k.  8.p %         ",
"    -.} ..{     & r a l l >.Q j H Z M 1.z.J.Q.    :.a q         ",
"    l K } ..|     q z d s k 4 , 2 r.S.G.G.j.2     S 6           ",
"    z j K } {     & 8 8 0 : a g.D.Z.k.x , ,                     ",
"    9 0 h ' J Z                                                 ",
"        9 3 <                                                   ",
"                                                                ",
"                                                                ",
"                                                                ",
"                                                                "
};
