/* XPM */
static char *_87f3d222c624fae88fcd051c1902029Pvo5grJD7YT4txKy[] = {
/* columns rows colors chars-per-pixel */
"16 16 184 2 ",
"   c None",
".  c #5A5A5A",
"X  c gray36",
"o  c #5E5D5C",
"O  c gray37",
"+  c #605F5E",
"@  c #79634D",
"#  c #66625E",
"$  c #606060",
"%  c #626262",
"&  c #646464",
"*  c #656565",
"=  c gray40",
"-  c #676767",
";  c #686868",
":  c #6A6A6A",
">  c #9D6619",
",  c #B56501",
"<  c #A3641E",
"1  c #B26712",
"2  c #B76C14",
"3  c #B46E17",
"4  c #BE7015",
"5  c #B8731C",
"6  c #845E39",
"7  c #8C632B",
"8  c #986326",
"9  c #9A692B",
"0  c #9D6928",
"q  c #88613C",
"w  c #916231",
"e  c #996530",
"r  c #9C6933",
"t  c #9C6C39",
"y  c #9D7338",
"u  c #A06524",
"i  c #AC6D25",
"p  c #A77428",
"a  c #B07022",
"s  c #B67425",
"d  c #A87437",
"f  c #CE6700",
"g  c #C26900",
"h  c #C56B00",
"j  c #C36F0A",
"k  c #D06600",
"l  c #DD6500",
"z  c #CA7912",
"x  c #CA7A16",
"c  c #D87F13",
"v  c #F97B00",
"b  c #8C6E52",
"n  c #927A5C",
"m  c #A27E53",
"M  c #977F68",
"N  c #847D74",
"B  c #BE8039",
"V  c #DC8416",
"C  c #F18100",
"Z  c #F38500",
"A  c #FF8200",
"S  c #FF8300",
"D  c #F48800",
"F  c #F98A00",
"G  c #FF8800",
"H  c #FF8900",
"J  c #FF8D00",
"K  c #F28B09",
"L  c #FF9000",
"P  c #FF9200",
"I  c #FF9500",
"U  c #FF9600",
"Y  c #FF940E",
"T  c #E88915",
"R  c #FD9812",
"E  c #FF991B",
"W  c #D78C30",
"Q  c #D69238",
"!  c #D89038",
"~  c #E08923",
"^  c #F39723",
"/  c #EA9B34",
"(  c #FFAB37",
")  c #9F8352",
"_  c #B18A5D",
"`  c #AB9056",
"'  c #9B856C",
"]  c #8E8276",
"[  c #918072",
"{  c #9F9175",
"}  c #B28B60",
"|  c #AB9269",
" . c #AF9578",
".. c #C38841",
"X. c #CD934B",
"o. c #C99352",
"O. c #CB9555",
"+. c #CA9755",
"@. c #C99A5D",
"#. c #D19958",
"$. c #E09841",
"%. c #E19B49",
"&. c #E09D49",
"*. c #DBA35B",
"=. c #E4A34F",
"-. c #EDAC4B",
";. c #FCAA46",
":. c #E9A856",
">. c #CCA468",
",. c #D5A266",
"<. c #DEAB6D",
"1. c #C8AB75",
"2. c #D7AE7D",
"3. c #D5B47E",
"4. c #DFB479",
"5. c #E5A861",
"6. c #FCBB6B",
"7. c #FABD6B",
"8. c #E7B271",
"9. c #E7BC7C",
"0. c gray51",
"q. c #838383",
"w. c gray53",
"e. c gray59",
"r. c #989898",
"t. c gray60",
"y. c gray62",
"u. c #A79D93",
"i. c #AEA69D",
"p. c #B9A690",
"a. c #BCAB98",
"s. c #A4A4A4",
"d. c gray67",
"f. c #B9B2AB",
"g. c #B6B6B6",
"h. c gray72",
"j. c #D0AF89",
"k. c #CDB188",
"l. c #D5B380",
"z. c #D7B48B",
"x. c #DAB789",
"c. c #C7AE92",
"v. c #CFB698",
"b. c #CCB898",
"n. c #DDBF94",
"m. c #D5BA99",
"M. c #C6BAAC",
"N. c #C1B9B2",
"B. c #C4BFB8",
"V. c #EFCD96",
"C. c #E8CA9F",
"Z. c #F2CE9B",
"A. c #D1C0A0",
"S. c #CDC2B2",
"D. c #C8C0B7",
"F. c #D2C5B5",
"G. c #EBCCA1",
"H. c #E9D5B3",
"J. c #B2C0C6",
"K. c #B0CDE4",
"L. c #ADD3EC",
"P. c #C4C4C3",
"I. c #C6C6C6",
"U. c #CBCBCB",
"Y. c gray81",
"T. c #D1CDC8",
"R. c #D6CFC8",
"E. c #D0D0D0",
"W. c #D4D3D2",
"Q. c #D5D5D5",
"!. c #DDDAD6",
"~. c #D8D8D8",
"^. c #DADADA",
"/. c #DFDFDA",
"(. c gainsboro",
"). c #FFEBC3",
"_. c gray88",
"`. c #E2E2E2",
"'. c #E7E7E7",
"]. c gray93",
"[. c #FFF9EB",
"{. c #EFFCFF",
"}. c #EFFFFF",
"|. c white",
/* pixels */
"            O & & %             ",
"        & s.W.^.~.U.y.%         ",
"      w.`.~.d.w.q.h.'.`.[ b     ",
"    q.].x./ *.&.&.n.-.u._ w q   ",
"  : /.D.K ^ Z.( A G 6...g.s r   ",
"  y.Q.X.T 9.|.{.3.;.E 7.F.z.d   ",
": U.a.W 8.~ A.{ 1.|.k.v :.t.I.; ",
"& W.o.2.! l 4.H.V.J.) F G +.W.& ",
"- c.j.O.h f G.{.b.f C U U D S.& ",
"& f._ 3 4 x l.| >.Y J J P V D.& ",
"  t. .< 3 [.|.g ).|.Q G Z T.e.  ",
"  ` !.6 a /.K.> G.L.p A @.N.%   ",
"$.R m R.e 9 7 j , y =.<.m.t @   ",
"i c P N M u 1 B ,.5.#.v.n 0     ",
"  8 z 5 + ] i.P.M.p.' O         ",
"            o & & .             "
};
